HIERARCHY
ROOT Pelvis
{
	OFFSET -0.217368 -24.078917 2.858379
	CHANNELS 6 Xposition Yposition Zposition Zrotation Yrotation Xrotation 
	JOINT Left_hip
	{
		OFFSET 5.858135 -8.228005 -1.766408
		CHANNELS 3 Zrotation Yrotation Xrotation
		JOINT Left_knee
		{
			OFFSET 4.345143 -38.646942 0.803700
			CHANNELS 3 Zrotation Yrotation Xrotation
			JOINT Left_ankle
			{
				OFFSET -1.479033 -42.687447 -3.742800
				CHANNELS 3 Zrotation Yrotation Xrotation
				JOINT Left_foot
				{
					OFFSET 4.105436 -6.028605 12.204244
					CHANNELS 3 Zrotation Yrotation Xrotation
					End Site
					{
						OFFSET 0.000000 0.000000 0.000000
					}
				}
			}
		}
	}
	JOINT Right_hip
	{
		OFFSET -6.030973 -9.051328 -1.354253
		CHANNELS 3 Zrotation Yrotation Xrotation
		JOINT Right_knee
		{
			OFFSET -4.325663 -38.368790 -0.484304
			CHANNELS 3 Zrotation Yrotation Xrotation
			JOINT Right_ankle
			{
				OFFSET 1.905555 -42.004566 -3.456167
				CHANNELS 3 Zrotation Yrotation Xrotation
				JOINT Right_foot
				{
					OFFSET -3.483987 -6.210554 13.032330
					CHANNELS 3 Zrotation Yrotation Xrotation
					End Site
					{
						OFFSET 0.000000 0.000000 0.000000
					}
				}
			}
		}
	}
	JOINT Spine1
	{
		OFFSET 0.443945 12.440353 -3.838522
		CHANNELS 3 Zrotation Yrotation Xrotation
		JOINT Spine2
		{
			OFFSET 0.448844 13.795640 2.682033
			CHANNELS 3 Zrotation Yrotation Xrotation
			JOINT Spine3
			{
				OFFSET -0.226460 5.603239 0.285504
				CHANNELS 3 Zrotation Yrotation Xrotation
				JOINT Neck
				{
					OFFSET -1.339018 21.163553 -3.346758
					CHANNELS 3 Zrotation Yrotation Xrotation
					JOINT Head
					{
						OFFSET 1.011321 8.893734 5.040987
						CHANNELS 3 Zrotation Yrotation Xrotation
						End Site
						{
							OFFSET 0.000000 0.000000 0.000000
						}
					}
				}
				JOINT Left_collar
				{
					OFFSET 7.170247 11.399971 -1.889817
					CHANNELS 3 Zrotation Yrotation Xrotation
					JOINT Left_shoulder
					{
						OFFSET 12.292140 4.520507 -1.904600
						CHANNELS 3 Zrotation Yrotation Xrotation
						JOINT Left_elbow
						{
							OFFSET 25.533188 -1.564902 -2.294648
							CHANNELS 3 Zrotation Yrotation Xrotation
							JOINT Left_wrist
							{
								OFFSET 26.570929 1.269810 -0.737473
								CHANNELS 3 Zrotation Yrotation Xrotation
								JOINT Left_palm
								{
									OFFSET 8.669054 -1.063602 -1.559429
									CHANNELS 3 Zrotation Yrotation Xrotation
									End Site
									{
										OFFSET 0.000000 0.000000 0.000000
									}
								}
							}
						}
					}
				}
				JOINT Right_collar
				{
					OFFSET -8.295364 11.247234 -2.370738
					CHANNELS 3 Zrotation Yrotation Xrotation
					JOINT Right_shoulder
					{
						OFFSET -11.322830 4.685326 -0.847207
						CHANNELS 3 Zrotation Yrotation Xrotation
						JOINT Right_elbow
						{
							OFFSET -26.012751 -1.436928 -3.126872
							CHANNELS 3 Zrotation Yrotation Xrotation
							JOINT Right_wrist
							{
								OFFSET -26.910841 0.679372 -0.602677
								CHANNELS 3 Zrotation Yrotation Xrotation
								JOINT Right_palm
								{
									OFFSET -8.875370 -0.865157 -1.010708
									CHANNELS 3 Zrotation Yrotation Xrotation
									End Site
									{
										OFFSET 0.000000 0.000000 0.000000
									}
								}
							}
						}
					}
				}
			}
		}
	}
}
MOTION
Frames: 15
Frame Time: 0.016667
-8.084309 68.956383 105.113937 3.240223 2.363342 7.435083 -9.067298 -5.868429 -33.896757 0.785679 -0.966796 20.753309 -3.251571 0.204526 14.302784 0.000000 0.000000 0.000000 2.335537 -0.923127 7.174524 3.976739 -0.309008 23.915178 2.150955 2.855160 4.397523 0.000000 0.000000 0.000000 -8.953603 0.514052 11.717108 2.979067 -1.527864 1.581566 3.970209 5.230962 1.377854 -5.028574 3.940402 1.728317 0.000000 0.000000 0.000000 -27.613710 -6.260956 0.971723 -37.634358 -11.531072 -0.759656 -10.424498 -34.255765 4.465576 0.000000 0.000000 0.000000 0.000000 0.000000 0.000000 22.931663 8.138285 2.399686 46.640165 1.315989 -3.589666 -9.349891 20.187603 -0.840512 0.000000 0.000000 0.000000 0.000000 0.000000 0.000000 
-8.248151 69.450119 109.116516 2.408001 1.684727 4.826173 -8.580810 -4.653834 -27.921448 1.594905 -1.188873 20.364589 -2.715535 -1.146172 9.000117 0.000000 0.000000 0.000000 0.217836 -0.330521 3.187024 6.207638 -1.259045 36.933472 4.704410 5.090032 10.341320 0.000000 0.000000 0.000000 -10.312688 0.746271 13.341312 0.742041 -0.443916 2.385514 5.072378 2.044382 1.766734 -5.863822 4.608108 -0.830586 0.000000 0.000000 0.000000 -27.002981 -8.549396 2.451266 -35.591597 -12.339322 -0.528755 -6.633748 -35.996587 3.481872 0.000000 0.000000 0.000000 0.000000 0.000000 0.000000 21.692832 11.286398 4.247747 48.607399 1.901446 -3.526351 -9.266175 25.522398 -1.109321 0.000000 0.000000 0.000000 0.000000 0.000000 0.000000 
-8.430811 70.151337 112.519348 1.016385 1.292243 3.653497 -7.547202 -3.402446 -21.853186 1.280439 -0.933138 17.006726 -1.166484 0.301116 5.843378 0.000000 0.000000 0.000000 -1.019624 0.378821 -3.898887 7.510202 -2.281730 49.663811 3.317356 1.175926 12.546488 0.000000 0.000000 0.000000 -11.668775 0.917640 13.358709 1.025952 -0.621870 3.233392 4.535024 0.366255 1.539244 -6.016404 4.724824 -1.041082 0.000000 0.000000 0.000000 -26.276932 -9.660395 3.162626 -36.255300 -14.635192 0.117598 -0.465484 -33.959491 1.405774 0.000000 0.000000 0.000000 0.000000 0.000000 0.000000 21.240860 11.424354 4.319015 50.328135 3.604315 -2.970268 -9.790402 29.173669 -1.432008 0.000000 0.000000 0.000000 0.000000 0.000000 0.000000 
-8.552816 71.341377 115.573395 0.059671 2.196604 2.363524 -6.230519 -2.455404 -17.168468 0.325219 -0.533134 13.197742 -1.715946 -0.289212 6.844654 0.000000 0.000000 0.000000 -1.049595 0.971237 -10.414848 8.317452 -3.133046 57.451791 -0.163575 -5.644780 13.020809 0.000000 0.000000 0.000000 -11.688214 0.925024 13.437863 0.545596 -0.456094 5.535992 2.986861 -2.257601 -0.713287 -5.559527 4.369647 1.832158 0.000000 0.000000 0.000000 -24.842261 -9.944564 3.343231 -35.875850 -16.546010 0.642294 1.950149 -32.324061 0.644047 0.000000 0.000000 0.000000 0.000000 0.000000 0.000000 19.456785 12.865039 5.087299 50.911055 5.714784 -2.133925 -10.084769 29.590247 -1.528659 0.000000 0.000000 0.000000 0.000000 0.000000 0.000000 
-8.550194 72.690773 118.389664 -1.169724 4.020736 1.411579 -5.119906 -1.493433 -11.353814 0.546428 -0.398129 8.581604 -3.007114 -1.895161 8.509894 0.000000 0.000000 0.000000 -0.602245 1.629088 -16.972512 8.996249 -3.684935 58.821219 -2.680713 -9.851749 10.980204 0.000000 0.000000 0.000000 -10.887881 0.837675 13.688654 0.623248 -0.519380 6.111618 2.138931 -4.372954 -1.822210 -4.643780 3.590181 4.347362 0.000000 0.000000 0.000000 -24.503592 -11.032034 4.006313 -36.044831 -15.983378 0.490971 4.464594 -32.354161 -0.073731 0.000000 0.000000 0.000000 0.000000 0.000000 0.000000 19.715160 12.810457 5.066040 49.674820 5.004757 -2.369441 -11.835249 30.381990 -2.019316 0.000000 0.000000 0.000000 0.000000 0.000000 0.000000 
-8.505439 73.579674 121.098236 -2.166283 3.959492 0.490104 -2.750873 -0.638700 -5.805486 0.703427 -0.248598 4.222970 -4.001000 -3.318896 9.265268 0.000000 0.000000 0.000000 -0.501713 2.348354 -24.181069 8.225485 -3.128109 58.663801 -4.827414 -13.493860 8.069507 0.000000 0.000000 0.000000 -10.494714 0.770681 13.371540 0.805773 -0.598866 5.585851 1.088401 -5.384096 -1.579999 -3.686564 2.713580 6.498786 0.000000 0.000000 0.000000 -23.521564 -9.914064 3.326563 -36.910223 -16.364160 0.634314 3.717817 -31.134019 0.134775 0.000000 0.000000 0.000000 0.000000 0.000000 0.000000 17.453712 12.898349 5.032828 49.947173 4.225330 -2.696720 -12.524941 28.692643 -2.049328 0.000000 0.000000 0.000000 0.000000 0.000000 0.000000 
-8.420035 74.013000 123.742157 -3.301322 5.860000 0.536225 -0.651768 -0.166029 -1.789567 0.041650 -0.022481 0.518227 -4.093746 -3.164995 9.912895 0.000000 0.000000 0.000000 -0.870374 2.691016 -28.468990 9.518617 -3.614244 51.835798 -5.649490 -15.017533 7.118719 0.000000 0.000000 0.000000 -9.764326 0.635239 12.407757 0.869423 -0.625261 5.381323 0.546802 -7.335499 -1.233205 -3.321307 2.340693 7.886813 0.000000 0.000000 0.000000 -23.398700 -8.824693 2.679568 -37.332359 -16.633288 0.731290 1.241354 -31.049648 0.811531 0.000000 0.000000 0.000000 0.000000 0.000000 0.000000 17.134763 11.031062 4.029629 48.124570 2.662384 -3.197288 -11.002052 26.654632 -1.546297 0.000000 0.000000 0.000000 0.000000 0.000000 0.000000 
-8.334108 73.952248 126.364594 -4.131397 7.804796 -1.035142 1.129603 0.181688 2.394886 -0.652580 0.097709 -0.918675 -3.713734 -3.266169 8.327467 0.000000 0.000000 0.000000 -0.571680 2.856386 -29.430916 7.767932 -2.263344 45.113883 -4.395639 -12.266433 6.014450 0.000000 0.000000 0.000000 -9.642408 0.616194 12.299782 0.995137 -0.689123 5.284183 0.313114 -9.416253 0.047729 -3.532001 2.483970 9.274376 0.000000 0.000000 0.000000 -25.552401 -8.627444 2.526035 -35.214317 -15.246639 0.258396 -0.543347 -30.523357 1.276682 0.000000 0.000000 0.000000 0.000000 0.000000 0.000000 17.672869 10.492019 3.749211 45.117118 0.035367 -3.915789 -10.847827 25.321676 -1.421849 0.000000 0.000000 0.000000 0.000000 0.000000 0.000000 
-8.132205 73.715439 129.085419 -3.850713 9.028128 -2.418991 0.659815 0.416699 4.953928 -0.251248 0.012227 0.480475 -3.568176 -4.157651 6.066147 0.000000 0.000000 0.000000 -0.502311 2.902480 -29.722249 5.817058 -1.081675 36.989054 -3.512025 -10.512199 6.517973 0.000000 0.000000 0.000000 -9.866966 0.699454 13.538472 1.204110 -0.871128 6.876766 -0.847368 -9.300671 -1.288429 -3.846482 2.701627 11.735693 0.000000 0.000000 0.000000 -25.627725 -8.286856 2.313851 -34.388137 -14.686245 0.085024 0.530378 -29.173722 0.942528 0.000000 0.000000 0.000000 0.000000 0.000000 0.000000 18.228083 8.618633 2.743508 43.809542 -1.035763 -4.156178 -8.878973 23.371403 -0.922829 0.000000 0.000000 0.000000 0.000000 0.000000 0.000000 
-7.819976 72.903358 132.025299 -3.670957 9.912711 -3.306467 0.259152 0.638048 7.178134 0.221811 -0.095376 1.961663 -3.517505 -5.484141 3.486361 0.000000 0.000000 0.000000 0.551429 2.804078 -26.504881 2.923026 0.055425 25.352541 -1.833838 -8.298326 11.254078 0.000000 0.000000 0.000000 -9.341155 0.615723 13.132411 0.574440 -0.506542 6.491993 -1.258654 -9.327329 -1.395960 -2.266451 1.065033 13.593040 0.000000 0.000000 0.000000 -26.624006 -8.290858 2.295021 -33.352489 -11.986513 -0.623405 -1.568023 -27.596369 1.396219 0.000000 0.000000 0.000000 0.000000 0.000000 0.000000 20.761354 7.772716 2.232763 41.428929 -4.193277 -4.906272 -8.242157 23.225002 -0.797941 0.000000 0.000000 0.000000 0.000000 0.000000 0.000000 
-7.571144 71.973129 135.259415 -3.137527 11.543384 -2.942824 0.680208 0.749419 8.841591 0.078317 -0.110980 2.927741 -3.652405 -8.123877 -0.309518 0.000000 0.000000 0.000000 0.551647 2.506361 -23.773174 1.184295 0.422809 18.308980 -0.461877 -6.369752 13.585533 0.000000 0.000000 0.000000 -8.874942 0.542544 12.715045 1.560281 -1.049201 6.454611 -2.323811 -8.973485 -2.696829 -2.753438 1.538411 13.862803 0.000000 0.000000 0.000000 -26.625841 -7.396713 1.731454 -33.950627 -10.263979 -1.065452 -3.369124 -24.913866 1.645862 0.000000 0.000000 0.000000 0.000000 0.000000 0.000000 22.304717 6.408002 1.402800 40.908622 -5.407166 -5.213358 -7.395215 21.043578 -0.563925 0.000000 0.000000 0.000000 0.000000 0.000000 0.000000 
-7.444406 71.240356 138.706161 -2.045684 11.362500 -2.439310 0.142040 1.034259 11.437632 -0.127966 -0.091349 3.179560 -3.718151 -8.843007 -1.151208 0.000000 0.000000 0.000000 1.442536 2.236287 -19.995179 -0.740735 0.657006 12.324957 0.798447 -4.374214 14.577659 0.000000 0.000000 0.000000 -9.708303 0.529068 10.174383 1.598643 -1.093878 6.940383 -2.832144 -8.872672 -2.210061 -3.035909 1.863024 12.963355 0.000000 0.000000 0.000000 -26.774383 -6.017230 0.857508 -34.179635 -8.483239 -1.526957 -3.577580 -23.449389 1.587684 0.000000 0.000000 0.000000 0.000000 0.000000 0.000000 23.499454 5.994997 1.110321 40.863088 -7.135931 -5.740737 -4.454361 21.980728 -0.088092 0.000000 0.000000 0.000000 0.000000 0.000000 0.000000 
-7.474366 70.717094 142.274063 -1.422004 12.015941 -3.221620 0.038195 1.259189 13.744129 0.276788 -0.227844 5.360476 -3.390576 -8.677458 -1.986787 0.000000 0.000000 0.000000 1.704725 1.806497 -15.980805 -0.875469 0.614883 10.866929 0.305746 -4.484849 12.186867 0.000000 0.000000 0.000000 -10.517556 0.564809 9.339276 1.985467 -1.308587 6.921453 -2.662562 -8.851524 -1.732157 -4.147852 2.975384 12.418508 0.000000 0.000000 0.000000 -26.548619 -5.153463 0.328460 -34.206930 -6.662184 -1.993621 -4.598695 -21.574609 1.646810 0.000000 0.000000 0.000000 0.000000 0.000000 0.000000 23.916940 5.991226 1.089580 41.280432 -8.513209 -6.237799 -2.292597 23.363496 0.301267 0.000000 0.000000 0.000000 0.000000 0.000000 0.000000 
-7.759026 70.513390 145.913956 -0.925075 12.711443 -3.559205 -0.116938 1.418582 15.215781 2.375026 -0.758956 8.927475 -3.967771 -8.629650 -0.026677 0.000000 0.000000 0.000000 2.044292 1.383665 -12.097935 -0.282126 0.432480 9.444036 0.439153 -3.400763 9.893284 0.000000 0.000000 0.000000 -11.173523 0.534034 7.770574 2.320392 -1.468931 6.455170 -1.749037 -8.199408 -1.190194 -5.084652 3.885796 12.918827 0.000000 0.000000 0.000000 -27.989422 -3.904916 -0.558841 -31.755718 -3.221636 -2.665158 -4.565531 -21.463991 1.631876 0.000000 0.000000 0.000000 0.000000 0.000000 0.000000 25.668436 5.136507 0.481011 40.925986 -10.897746 -6.913109 -0.771390 25.140816 0.628525 0.000000 0.000000 0.000000 0.000000 0.000000 0.000000 
-8.312300 70.362198 149.516357 -1.423841 12.676573 -4.440841 0.703203 1.166110 13.695460 4.438013 -1.824082 17.727025 -5.007660 -10.292987 0.854113 0.000000 0.000000 0.000000 3.614397 1.022909 -8.382280 0.175989 0.280619 7.786332 -0.253853 -4.206027 8.236752 0.000000 0.000000 0.000000 -10.426470 0.465709 7.546981 2.410641 -1.523487 6.536990 -1.443319 -7.572725 -1.610803 -5.659318 4.451955 15.824987 0.000000 0.000000 0.000000 -29.039526 -2.987262 -1.237803 -30.467826 -1.224279 -2.995220 -3.914649 -20.521199 1.442171 0.000000 0.000000 0.000000 0.000000 0.000000 0.000000 26.060598 5.207179 0.503295 42.616218 -11.895666 -7.568308 -0.975323 27.639508 0.645997 0.000000 0.000000 0.000000 0.000000 0.000000 0.000000 
